<?xml version="1.0" encoding="UTF-8" standalone="no"?>
<svg
   width="680"
   height="906"
   viewBox="0 0 680 906"
   fill="none"
   version="1.1"
   id="svg12"
   sodipodi:docname="rounded_rectangle_02.svg"
   inkscape:version="1.2 (dc2aedaf03, 2022-05-15)"
   xmlns:inkscape="http://www.inkscape.org/namespaces/inkscape"
   xmlns:sodipodi="http://sodipodi.sourceforge.net/DTD/sodipodi-0.dtd"
   xmlns="http://www.w3.org/2000/svg"
   xmlns:svg="http://www.w3.org/2000/svg">
  <defs
     id="defs16" />
  <sodipodi:namedview
     id="namedview14"
     pagecolor="#ffffff"
     bordercolor="#000000"
     borderopacity="0.25"
     inkscape:showpageshadow="2"
     inkscape:pageopacity="0.0"
     inkscape:pagecheckerboard="0"
     inkscape:deskcolor="#d1d1d1"
     showgrid="false"
     inkscape:zoom="0.92384106"
     inkscape:cx="340.42652"
     inkscape:cy="453.54122"
     inkscape:window-width="1920"
     inkscape:window-height="1017"
     inkscape:window-x="-8"
     inkscape:window-y="-8"
     inkscape:window-maximized="1"
     inkscape:current-layer="svg12" />
  <path
     fill-rule="evenodd"
     clip-rule="evenodd"
     d="M 680,64 C 680,28.6538 651.3462,0 616,0 H 320 c -24.069,0.771098 -48.18,3.89833 -72.762,28.445 -27.581,27.5881 -28.137,54.6301 -28.694,81.672 -0.557,27.042 -1.114,54.084 -28.694,81.672 -27.58,27.588 -54.614,28.145 -81.649,28.702 -27.034,0.557 -54.068,1.114 -81.649,28.702 C 9.465,266.286 2.784,283.207 0,300 v 542 c 0,35.346 28.654,64 64,64 h 296 c 24.069,-0.771 48.18,-3.898 72.762,-28.445 27.581,-27.588 28.137,-54.63 28.694,-81.672 0.557,-27.042 1.114,-54.084 28.694,-81.672 27.58,-27.588 54.614,-28.145 81.649,-28.702 27.034,-0.557 54.0682,-1.114 81.6485,-28.702 C 670.53533,639.714 677.21627,622.793 680,606 Z"
     fill="#000000"
     id="path10" />
</svg>
